<svg xmlns="http://www.w3.org/2000/svg" xmlns:xlink="http://www.w3.org/1999/xlink" width="500" zoomAndPan="magnify" viewBox="0 0 375 374.999991" height="500" preserveAspectRatio="xMidYMid meet" version="1.0"><defs><g/></defs><path fill="#3f5965" d="M 179.964844 278.796875 C 182.585938 278.015625 185.136719 277.121094 187.621094 276.121094 C 144.632812 284.628906 101.441406 259.152344 88.714844 216.300781 C 75.992188 173.449219 98.277344 128.527344 138.941406 112.191406 C 136.3125 112.710938 133.6875 113.351562 131.066406 114.128906 C 85.59375 127.632812 59.679688 175.441406 73.183594 220.914062 C 86.683594 266.382812 134.492188 292.296875 179.964844 278.796875 " fill-opacity="1" fill-rule="nonzero"/><path fill="#289db9" d="M 73.550781 256.996094 C 75.828125 258.785156 78.171875 260.441406 80.558594 261.976562 C 46.835938 230.035156 42.367188 177.078125 71.601562 139.796875 C 100.832031 102.515625 153.328125 94.222656 192.390625 119.351562 C 190.328125 117.398438 188.164062 115.519531 185.882812 113.734375 C 146.324219 82.714844 89.105469 89.636719 58.085938 129.199219 C 27.066406 168.757812 33.988281 225.976562 73.550781 256.996094 " fill-opacity="1" fill-rule="nonzero"/><path fill="#289db9" d="M 158.195312 252.839844 C 134.738281 246.53125 115.441406 232.464844 102.316406 214.148438 C 112.664062 236.992188 132.773438 255.195312 158.878906 262.210938 C 192.984375 271.378906 227.800781 258.902344 248.75 233.191406 C 224.386719 253.265625 191.003906 261.65625 158.195312 252.839844 " fill-opacity="1" fill-rule="nonzero"/><g fill="#3f5965" fill-opacity="1"><g transform="translate(121.284487, 205.902796)"><g><path d="M 15.546875 -9.34375 L 28.125 -37.359375 L 36.734375 -37.359375 L 18.296875 0 L 10.4375 0 L 3.71875 -37.359375 L 11.796875 -37.359375 Z M 15.546875 -9.34375 "/></g></g></g><g fill="#3f5965" fill-opacity="1"><g transform="translate(152.392634, 205.902796)"><g><path d="M 8.546875 0 L 1.03125 0 L 7.484375 -37.359375 L 15.015625 -37.359375 Z M 8.546875 0 "/></g></g></g><g fill="#3f5965" fill-opacity="1"><g transform="translate(165.031654, 205.902796)"><g><path d="M 33.25 -31.125 L 22.171875 -31.125 L 16.78125 0 L 9.265625 0 L 14.65625 -31.125 L 3.6875 -31.125 L 4.796875 -37.359375 L 34.359375 -37.359375 Z M 33.25 -31.125 "/></g></g></g><g fill="#289db9" fill-opacity="1"><g transform="translate(192.533591, 204.882335)"><g><path d="M 16.140625 0 C 15.921875 -0.695312 15.828125 -1.535156 15.859375 -2.515625 C 13.765625 -0.429688 11.40625 0.578125 8.78125 0.515625 C 6.34375 0.484375 4.320312 -0.304688 2.71875 -1.859375 C 1.125 -3.410156 0.378906 -5.320312 0.484375 -7.59375 C 0.609375 -10.625 1.878906 -12.945312 4.296875 -14.5625 C 6.710938 -16.175781 9.957031 -16.984375 14.03125 -16.984375 L 17.421875 -16.9375 L 17.78125 -18.609375 C 17.882812 -19.171875 17.910156 -19.707031 17.859375 -20.21875 C 17.773438 -21.019531 17.472656 -21.644531 16.953125 -22.09375 C 16.429688 -22.550781 15.738281 -22.789062 14.875 -22.8125 C 13.75 -22.84375 12.789062 -22.5625 12 -21.96875 C 11.21875 -21.382812 10.71875 -20.535156 10.5 -19.421875 L 3.234375 -19.390625 C 3.347656 -22.046875 4.5625 -24.195312 6.875 -25.84375 C 9.195312 -27.5 12.0625 -28.3125 15.46875 -28.28125 C 18.613281 -28.207031 21.078125 -27.269531 22.859375 -25.46875 C 24.640625 -23.664062 25.382812 -21.34375 25.09375 -18.5 L 22.96875 -5.203125 L 22.828125 -3.5625 C 22.796875 -2.351562 22.941406 -1.328125 23.265625 -0.484375 L 23.25 0 Z M 10.578125 -5.109375 C 12.660156 -5.035156 14.476562 -5.941406 16.03125 -7.828125 L 16.9375 -12.625 L 14.421875 -12.65625 C 11.753906 -12.582031 9.828125 -11.769531 8.640625 -10.21875 C 8.210938 -9.644531 7.945312 -8.953125 7.84375 -8.140625 C 7.707031 -7.210938 7.898438 -6.476562 8.421875 -5.9375 C 8.953125 -5.394531 9.671875 -5.117188 10.578125 -5.109375 Z M 10.578125 -5.109375 "/></g></g></g><g fill="#289db9" fill-opacity="1"><g transform="translate(217.639669, 204.882335)"><g><path d="M 11.625 -27.78125 L 11.03125 -24.625 C 13.269531 -27.125 15.984375 -28.34375 19.171875 -28.28125 C 20.878906 -28.238281 22.296875 -27.84375 23.421875 -27.09375 C 24.554688 -26.34375 25.316406 -25.328125 25.703125 -24.046875 C 28.148438 -26.929688 31.023438 -28.34375 34.328125 -28.28125 C 36.878906 -28.226562 38.800781 -27.351562 40.09375 -25.65625 C 41.382812 -23.96875 41.925781 -21.519531 41.71875 -18.3125 L 41.671875 -17.671875 L 38.71875 0 L 31.453125 0 L 34.40625 -17.734375 C 34.476562 -18.359375 34.503906 -18.945312 34.484375 -19.5 C 34.359375 -21.289062 33.332031 -22.210938 31.40625 -22.265625 C 29.414062 -22.265625 27.710938 -21.207031 26.296875 -19.09375 L 26.21875 -18.5 L 22.984375 0 L 15.75 0 L 18.703125 -17.671875 C 18.773438 -18.304688 18.800781 -18.898438 18.78125 -19.453125 C 18.664062 -21.265625 17.648438 -22.195312 15.734375 -22.25 C 13.898438 -22.300781 12.25 -21.4375 10.78125 -19.65625 L 7.3125 0 L 0.078125 0 L 4.875 -27.765625 Z M 11.625 -27.78125 "/></g></g></g><g fill="#289db9" fill-opacity="1"><g transform="translate(259.547756, 204.882335)"><g><path d="M 7.71875 0 L 0.4375 0 L 5.265625 -27.765625 L 12.546875 -27.765625 Z M 6.109375 -34.8125 C 6.078125 -35.957031 6.453125 -36.90625 7.234375 -37.65625 C 8.023438 -38.414062 8.972656 -38.796875 10.078125 -38.796875 C 11.171875 -38.828125 12.117188 -38.488281 12.921875 -37.78125 C 13.734375 -37.082031 14.15625 -36.179688 14.1875 -35.078125 C 14.21875 -34.015625 13.859375 -33.085938 13.109375 -32.296875 C 12.367188 -31.515625 11.40625 -31.109375 10.21875 -31.078125 C 9.132812 -31.035156 8.1875 -31.359375 7.375 -32.046875 C 6.5625 -32.734375 6.140625 -33.65625 6.109375 -34.8125 Z M 6.109375 -34.8125 "/></g></g></g><g fill="#289db9" fill-opacity="1"><g transform="translate(270.853093, 204.882335)"><g><path d="M 11.515625 -27.78125 L 10.90625 -24.5 C 13.125 -27.082031 15.816406 -28.34375 18.984375 -28.28125 C 21.597656 -28.226562 23.53125 -27.269531 24.78125 -25.40625 C 26.03125 -23.539062 26.484375 -20.957031 26.140625 -17.65625 L 23.21875 0 L 15.984375 0 L 18.96875 -17.734375 C 19.050781 -18.398438 19.066406 -19.003906 19.015625 -19.546875 C 18.785156 -21.296875 17.691406 -22.195312 15.734375 -22.25 C 13.828125 -22.3125 12.125 -21.429688 10.625 -19.609375 L 7.15625 0 L -0.078125 0 L 4.75 -27.765625 Z M 11.515625 -27.78125 "/></g></g></g><g fill="#289db9" fill-opacity="1"><g transform="translate(132.103707, 234.693997)"><g><path d="M 9.0625 0.34375 C 7.519531 0.34375 6.128906 0.0546875 4.890625 -0.515625 C 3.660156 -1.085938 2.6875 -1.953125 1.96875 -3.109375 C 1.257812 -4.265625 0.90625 -5.710938 0.90625 -7.453125 C 0.90625 -9.128906 1.15625 -10.675781 1.65625 -12.09375 C 2.164062 -13.507812 2.890625 -14.738281 3.828125 -15.78125 C 4.765625 -16.832031 5.90625 -17.65625 7.25 -18.25 C 8.59375 -18.84375 10.085938 -19.140625 11.734375 -19.140625 C 12.710938 -19.140625 13.679688 -19 14.640625 -18.71875 C 15.609375 -18.445312 16.46875 -17.992188 17.21875 -17.359375 C 17.96875 -16.722656 18.519531 -15.863281 18.875 -14.78125 L 14.78125 -13.390625 C 14.4375 -14.179688 13.957031 -14.726562 13.34375 -15.03125 C 12.738281 -15.332031 12.050781 -15.484375 11.28125 -15.484375 C 10.40625 -15.484375 9.617188 -15.269531 8.921875 -14.84375 C 8.222656 -14.425781 7.628906 -13.859375 7.140625 -13.140625 C 6.660156 -12.429688 6.285156 -11.628906 6.015625 -10.734375 C 5.753906 -9.847656 5.625 -8.925781 5.625 -7.96875 C 5.625 -6.445312 5.984375 -5.304688 6.703125 -4.546875 C 7.429688 -3.785156 8.367188 -3.394531 9.515625 -3.375 C 10.222656 -3.375 10.914062 -3.523438 11.59375 -3.828125 C 12.269531 -4.128906 12.90625 -4.671875 13.5 -5.453125 L 17.328125 -3.96875 C 16.472656 -2.632812 15.359375 -1.582031 13.984375 -0.8125 C 12.617188 -0.0390625 10.976562 0.34375 9.0625 0.34375 Z M 9.0625 0.34375 "/></g></g></g><g fill="#289db9" fill-opacity="1"><g transform="translate(151.03973, 234.693997)"><g><path d="M 6.5 0 L 6.5 -5.171875 L 1.09375 -5.171875 L 1.09375 -8.78125 L 6.5 -8.78125 L 6.5 -13.953125 L 10.109375 -13.953125 L 10.109375 -8.78125 L 15.5 -8.78125 L 15.5 -5.171875 L 10.109375 -5.171875 L 10.109375 0 Z M 6.5 0 "/></g></g></g><g fill="#289db9" fill-opacity="1"><g transform="translate(169.187918, 234.693997)"><g><path d="M 6.5 0 L 6.5 -5.171875 L 1.09375 -5.171875 L 1.09375 -8.78125 L 6.5 -8.78125 L 6.5 -13.953125 L 10.109375 -13.953125 L 10.109375 -8.78125 L 15.5 -8.78125 L 15.5 -5.171875 L 10.109375 -5.171875 L 10.109375 0 Z M 6.5 0 "/></g></g></g></svg>